<?xml version="1.0" encoding="UTF-8" standalone="no"?><!DOCTYPE svg PUBLIC "-//W3C//DTD SVG 1.1//EN" "http://www.w3.org/Graphics/SVG/1.1/DTD/svg11.dtd"><svg width="100%" height="100%" viewBox="0 0 2500 1250" version="1.1" xmlns="http://www.w3.org/2000/svg" xmlns:xlink="http://www.w3.org/1999/xlink" xml:space="preserve" xmlns:serif="http://www.serif.com/" style="fill-rule:evenodd;clip-rule:evenodd;stroke-linecap:square;stroke-miterlimit:10;"><g><g><rect x="1152.08" y="468.958" width="1185.83" height="289.167" style="fill:none;"/><path d="M1286.32,600.735l99,122.467l0,2.933l-63.433,0l-91.667,-117.7l0,117.7l-52.067,0l0,-237.6l52.067,0l0,110l91.3,-110l58.667,0l-0,2.933l-93.867,109.267Z" style="fill:#316ce6;fill-rule:nonzero;"/><path d="M1558.75,557.468l0,168.667l-42.533,0l-4.033,-13.2c-18.822,12.222 -38.134,18.333 -57.934,18.333c-16.377,0 -29.027,-4.522 -37.95,-13.566c-8.922,-9.045 -13.383,-21.511 -13.383,-37.4l0,-118.067l49.867,-4.767l-0,108.167c-0,9.778 1.589,16.806 4.766,21.083c3.178,4.278 8.923,6.417 17.234,6.417c8.8,0 20.166,-3.789 34.1,-11.367l-0,-119.533l49.866,-4.767Z" style="fill:#316ce6;fill-rule:nonzero;"/><path d="M1703.22,555.635c22.245,0 38.745,7.089 49.5,21.267c10.756,14.177 16.133,35.566 16.133,64.166c0,22 -4.583,39.723 -13.75,53.167c-9.166,13.444 -20.961,22.978 -35.383,28.6c-14.422,5.622 -30.189,8.433 -47.3,8.433c-8.8,0 -19.433,-0.733 -31.9,-2.2c-12.467,-1.466 -25.055,-3.911 -37.767,-7.333l0,-247.867l50.234,-4.766l-0,101.566c16.622,-10.022 33.366,-15.033 50.233,-15.033Zm-33.367,138.967c14.912,-0 26.584,-4.461 35.017,-13.384c8.433,-8.922 12.65,-22.55 12.65,-40.883c0,-11.733 -0.978,-21.022 -2.933,-27.867c-1.956,-6.844 -5.195,-11.794 -9.717,-14.85c-4.522,-3.055 -10.694,-4.583 -18.517,-4.583c-9.533,0 -20.655,3.3 -33.366,9.9l-0,90.2c4.889,0.978 10.511,1.467 16.866,1.467Z" style="fill:#316ce6;fill-rule:nonzero;"/><path d="M1949.25,628.602c0,4.889 -0.488,13.444 -1.466,25.666l-105.6,0c1.466,13.689 5.989,23.773 13.566,30.25c7.578,6.478 16.623,9.717 27.134,9.717c7.822,0 15.4,-1.1 22.733,-3.3c7.333,-2.2 15.156,-5.744 23.467,-10.633l16.866,30.066c-8.8,6.6 -18.944,11.734 -30.433,15.4c-11.489,3.667 -23.955,5.5 -37.4,5.5c-16.133,0 -30.617,-2.933 -43.45,-8.8c-12.833,-5.866 -23.1,-15.216 -30.8,-28.05c-7.7,-12.833 -11.55,-29.394 -11.55,-49.683c0,-18.578 3.239,-34.589 9.717,-48.033c6.478,-13.445 15.889,-23.65 28.233,-30.617c12.345,-6.967 26.95,-10.45 43.817,-10.45c16.133,0 29.883,3.178 41.25,9.533c11.366,6.356 19.861,15.034 25.483,26.034c5.622,11 8.433,23.466 8.433,37.4Zm-74.066,-39.234c-8.556,0 -15.461,2.628 -20.717,7.884c-5.255,5.255 -8.861,13.505 -10.817,24.75l58.3,-0l0,-1.1c0,-11.245 -2.444,-19.311 -7.333,-24.2c-4.889,-4.889 -11.367,-7.334 -19.433,-7.334Z" style="fill:#316ce6;fill-rule:nonzero;"/><path d="M2088.58,555.635c16.866,0 29.578,4.217 38.133,12.65c8.556,8.433 12.833,20.717 12.833,36.85l0,121l-49.866,0l-0,-106.333c-0,-6.845 -0.672,-12.161 -2.017,-15.95c-1.344,-3.789 -3.605,-6.539 -6.783,-8.25c-3.178,-1.711 -7.7,-2.567 -13.567,-2.567c-9.778,0 -21.267,3.911 -34.467,11.733l0,121.367l-49.866,0l-0,-163.9l49.866,-4.767l0,16.134c9.045,-5.623 18.15,-10.023 27.317,-13.2c9.167,-3.178 18.639,-4.767 28.417,-4.767Z" style="fill:#316ce6;fill-rule:nonzero;"/><path d="M2288.42,719.168c-14.422,8.067 -30.555,12.1 -48.4,12.1c-9.044,0 -17.417,-1.772 -25.117,-5.316c-7.7,-3.545 -13.994,-9.228 -18.883,-17.05c-4.889,-7.823 -7.333,-17.723 -7.333,-29.7l-0,-78.834l-30.067,0l0,-39.233l30.067,0l-0,-37.033l49.866,-6.967l0,44l45.834,0l-5.134,39.233l-40.7,0l0,71.134c0,7.333 1.284,12.466 3.85,15.4c2.567,2.933 6.173,4.4 10.817,4.4c3.422,-0 6.722,-0.428 9.9,-1.284c3.178,-0.855 7.089,-2.261 11.733,-4.216l13.567,33.366Z" style="fill:#316ce6;fill-rule:nonzero;"/><g><path d="M740.417,473.958l275.833,150.834l-275.833,151.25l-151.25,276.25l-151.25,-276.25l-275.834,-151.25l275.834,-150.834l151.25,-276.25l151.25,276.25Z" style="fill:none;fill-rule:nonzero;stroke:#ed1b24;stroke-width:25px;"/><path d="M667.917,546.042l143.75,78.75l-143.75,78.75l-78.75,144.166l-78.75,-144.166l-143.75,-78.75l143.75,-78.75l78.75,-143.75l78.75,143.75Z" style="fill:none;fill-rule:nonzero;stroke:#ed1b24;stroke-width:25px;"/><path d="M589.167,197.708l-0,204.584" style="fill:none;fill-rule:nonzero;stroke:#ed1b24;stroke-width:25px;stroke-linecap:round;"/><path d="M1016.25,624.792l-204.583,-0" style="fill:none;fill-rule:nonzero;stroke:#ed1b24;stroke-width:25px;stroke-linecap:round;"/><path d="M162.083,624.792l204.584,-0" style="fill:none;fill-rule:nonzero;stroke:#ed1b24;stroke-width:25px;stroke-linecap:round;"/><path d="M589.167,1052.29l-0,-204.584" style="fill:none;fill-rule:nonzero;stroke:#ed1b24;stroke-width:25px;stroke-linecap:round;"/><path d="M541.25,623.542l102.083,-0" style="fill:none;fill-rule:nonzero;stroke:#ed1b24;stroke-width:25px;stroke-linecap:round;"/><path d="M592.5,572.292l0,102.5" style="fill:none;fill-rule:nonzero;stroke:#ed1b24;stroke-width:25px;stroke-linecap:round;"/></g></g></g></svg>